<svg xmlns="http://www.w3.org/2000/svg" width="90" height="90" viewBox="0 0 90 90">
  <g id="Grupo_17" data-name="Grupo 17" transform="translate(-155 -1085)">
    <g id="Elipse_8" data-name="Elipse 8" transform="translate(155 1085)" fill="none" stroke="#fff" stroke-width="10">
      <circle cx="45" cy="45" r="45" stroke="none"/>
      <circle cx="45" cy="45" r="40" fill="none"/>
    </g>
    <g id="surface1" transform="translate(166.827 1093.448)">
      <path id="Caminho_50" data-name="Caminho 50" d="M6.777,28.268H16.4V66.761A2.139,2.139,0,0,0,18.539,68.9H30.3V45.376a2.139,2.139,0,0,1,2.138-2.139H45.271a2.139,2.139,0,0,1,2.138,2.139V68.9H59.171a2.139,2.139,0,0,0,2.139-2.139V28.268h9.623L38.855,6.883Zm0,0" transform="translate(-5.708 -5.814)" fill="#338af3"/>
      <path id="Caminho_51" data-name="Caminho 51" d="M170.778,237.2H157.947a2.139,2.139,0,0,0-2.138,2.139v23.524h17.107V239.342A2.138,2.138,0,0,0,170.778,237.2Zm0,0" transform="translate(-131.216 -199.779)" fill="#cdcdd0"/>
      <path id="Caminho_52" data-name="Caminho 52" d="M65.819,21.675,33.742.29a1.069,1.069,0,0,0-1.187,0L.477,21.675a1.069,1.069,0,0,0,.594,1.959H9.624V61.057a3.208,3.208,0,0,0,3.208,3.208H53.464a3.208,3.208,0,0,0,3.207-3.208V23.634h8.554a1.069,1.069,0,0,0,.594-1.959ZM25.663,62.127V39.673A1.069,1.069,0,0,1,26.732,38.6H39.563a1.069,1.069,0,0,1,1.069,1.069V62.127ZM55.6,21.5a1.069,1.069,0,0,0-1.069,1.069V61.057a1.07,1.07,0,0,1-1.069,1.07H42.771V39.673a3.208,3.208,0,0,0-3.208-3.208H26.732a3.208,3.208,0,0,0-3.207,3.208V62.127H12.832a1.069,1.069,0,0,1-1.069-1.069V22.565a1.069,1.069,0,0,0-1.07-1.069H4.6L33.148,2.462,61.7,21.5Zm0,0" transform="translate(-0.001 -0.11)" fill="#231f20"/>
    </g>
  </g>
</svg>
