<svg xmlns="http://www.w3.org/2000/svg" width="95.955" height="89.338" viewBox="0 0 95.955 89.338">
  <g id="Flat" transform="translate(-3 -7)">
    <g id="Color_copy" data-name="Color copy" transform="translate(3 7)">
      <g id="Grupo_16" data-name="Grupo 16">
        <g id="Grupo_13" data-name="Grupo 13" transform="translate(3.305 34.741)">
          <g id="Grupo_12" data-name="Grupo 12" transform="translate(0 23.825)">
            <path id="Caminho_28" data-name="Caminho 28" d="M32.654,56.671A1.654,1.654,0,0,1,31.35,54a23.406,23.406,0,0,1,30.138-6.068l5.469,3.077a10.178,10.178,0,0,0,8.189.783,1.656,1.656,0,1,1,1.046,3.143A13.487,13.487,0,0,1,65.336,53.9l-5.471-3.077a20.119,20.119,0,0,0-25.9,5.216A1.654,1.654,0,0,1,32.654,56.671Z" transform="translate(12.019 -40.789)" fill="#aae1f9"/>
            <path id="Caminho_29" data-name="Caminho 29" d="M49.67,56.672a1.654,1.654,0,0,1-1.307-.639,20.121,20.121,0,0,0-25.9-5.216l-5.471,3.077A13.478,13.478,0,0,1,6.132,54.933,1.656,1.656,0,0,1,7.177,51.79a10.158,10.158,0,0,0,8.189-.783l5.469-3.077A23.408,23.408,0,0,1,50.974,54a1.654,1.654,0,0,1-1.3,2.674Z" transform="translate(-4.998 -40.79)" fill="#aae1f9"/>
            <path id="Caminho_30" data-name="Caminho 30" d="M47.707,58.282a1.654,1.654,0,0,1-1.378-.736l-.923-1.385A23.524,23.524,0,0,0,15.358,48.19,5.364,5.364,0,0,1,8.175,45.8a1.657,1.657,0,1,1,2.961-1.489,2.043,2.043,0,0,0,2.743.915,26.838,26.838,0,0,1,34.281,9.1l.923,1.385a1.654,1.654,0,0,1-1.376,2.576Z" transform="translate(-3.034 -42.401)" fill="#aae1f9"/>
            <path id="Caminho_31" data-name="Caminho 31" d="M32.654,58.28a1.654,1.654,0,0,1-1.375-2.573l.923-1.385a26.843,26.843,0,0,1,34.281-9.1,2.046,2.046,0,0,0,2.743-.915A1.657,1.657,0,1,1,72.187,45.8,5.362,5.362,0,0,1,65,48.188a23.526,23.526,0,0,0-30.049,7.971l-.923,1.385a1.654,1.654,0,0,1-1.376.736Z" transform="translate(12.019 -42.399)" fill="#aae1f9"/>
          </g>
          <path id="Caminho_32" data-name="Caminho 32" d="M40.654,42.581a1.654,1.654,0,0,1-1.17-2.824l8.272-8.272a1.654,1.654,0,1,1,2.34,2.34L41.824,42.1A1.654,1.654,0,0,1,40.654,42.581Z" transform="translate(17.254 -26.036)" fill="#f9e109"/>
          <path id="Caminho_33" data-name="Caminho 33" d="M27.565,43.87a1.654,1.654,0,0,1-1.256-.577L16.383,31.712a1.654,1.654,0,0,1,2.511-2.151L28.82,41.142a1.654,1.654,0,0,1-1.256,2.728Z" transform="translate(2.218 -27.325)" fill="#f9e109"/>
          <path id="Caminho_34" data-name="Caminho 34" d="M25.312,34.618a1.654,1.654,0,0,1-1.489-.915l-1.654-3.309a1.655,1.655,0,0,1,2.961-1.479l1.654,3.309a1.654,1.654,0,0,1-1.472,2.394Z" transform="translate(6.125 -27.999)" fill="#f9e109"/>
          <path id="Caminho_35" data-name="Caminho 35" d="M40.654,34.618a1.654,1.654,0,0,1-1.479-2.394l1.654-3.309a1.655,1.655,0,0,1,2.961,1.479L42.136,33.7a1.654,1.654,0,0,1-1.482.915Z" transform="translate(17.254 -27.999)" fill="#f9e109"/>
        </g>
        <path id="Caminho_36" data-name="Caminho 36" d="M75.014,63.229,32,56.611a9.129,9.129,0,0,1,11.261-8.878l21.9,5.254a13.194,13.194,0,0,1,9.857,10.241Z" transform="translate(15.978 19.491)" fill="#57b7eb"/>
        <path id="Caminho_37" data-name="Caminho 37" d="M6,63.229l43.014-6.618a9.129,9.129,0,0,0-11.261-8.878l-21.9,5.254A13.194,13.194,0,0,0,6,63.229Z" transform="translate(-1.037 19.491)" fill="#57b7eb"/>
        <path id="Caminho_38" data-name="Caminho 38" d="M63.5,54.989l-21.9-5.254a9.111,9.111,0,0,0-9.3,3.224A9.16,9.16,0,0,0,32,55.3l39.962,6.148A13.189,13.189,0,0,0,63.5,54.989Z" transform="translate(15.978 20.799)" fill="#4891d3"/>
        <path id="Caminho_39" data-name="Caminho 39" d="M38.2,49.735,16.3,54.989a13.189,13.189,0,0,0-8.459,6.462L47.807,55.3a9.161,9.161,0,0,0-.311-2.344,9.111,9.111,0,0,0-9.3-3.224Z" transform="translate(0.171 20.799)" fill="#4891d3"/>
        <g id="Grupo_14" data-name="Grupo 14" transform="translate(28.125)">
          <path id="Caminho_40" data-name="Caminho 40" d="M32,17V50.088h6.618V23.618H51.853V17Z" transform="translate(-12.147 -0.456)" fill="#fcbc04"/>
          <path id="Caminho_41" data-name="Caminho 41" d="M51.853,23.544V16.926H38.618V7H32V23.544Z" transform="translate(-12.147 -7)" fill="#f9e109"/>
          <path id="Caminho_42" data-name="Caminho 42" d="M39.853,7H33.235v9.926H20v6.618H39.853Z" transform="translate(-20 -7)" fill="#fcbc04"/>
          <path id="Caminho_43" data-name="Caminho 43" d="M20,17v6.618H33.235v26.47h6.618V17Z" transform="translate(-20 -0.456)" fill="#e59730"/>
        </g>
        <path id="Caminho_44" data-name="Caminho 44" d="M3,60.272V66.89l38.122-5.648a5.709,5.709,0,0,1,6.546,5.648h6.618a5.709,5.709,0,0,1,6.546-5.648L98.955,66.89V60.272L50.978,52Z" transform="translate(-3 22.448)" fill="#f9e109"/>
        <g id="Grupo_15" data-name="Grupo 15" transform="translate(28.125)">
          <path id="Caminho_45" data-name="Caminho 45" d="M34.618,13.618,28,7H41.235Z" transform="translate(-14.765 -7)" fill="#f9e109"/>
          <path id="Caminho_46" data-name="Caminho 46" d="M34.618,33,28,39.618H41.235Z" transform="translate(-14.765 10.014)" fill="#f9e109"/>
          <path id="Caminho_47" data-name="Caminho 47" d="M40,19.618l6.618,6.618V13Z" transform="translate(-6.912 -3.074)" fill="#f9e109"/>
          <path id="Caminho_48" data-name="Caminho 48" d="M26.618,19.618,20,26.235V13Z" transform="translate(-20 -3.074)" fill="#f9e109"/>
        </g>
        <path id="Caminho_49" data-name="Caminho 49" d="M3,62.272v3.309l38.122-5.648a5.709,5.709,0,0,1,6.546,5.648h6.618a5.709,5.709,0,0,1,6.546-5.648l38.122,5.648V62.272L50.978,54Z" transform="translate(-3 23.757)" fill="#fcbc04"/>
      </g>
    </g>
  </g>
</svg>
