<svg xmlns="http://www.w3.org/2000/svg" width="90" height="90" viewBox="0 0 90 90">
  <g id="Grupo_18" data-name="Grupo 18" transform="translate(-155 -1085)">
    <g id="Elipse_8" data-name="Elipse 8" transform="translate(155 1085)" fill="none" stroke="#fff" stroke-width="10">
      <circle cx="45" cy="45" r="45" stroke="none"/>
      <circle cx="45" cy="45" r="40" fill="none"/>
    </g>
    <g id="igreja" transform="translate(165.428 1090.04)">
      <g id="Grupo_20" data-name="Grupo 20" transform="translate(27.999 29.538)">
        <g id="Grupo_19" data-name="Grupo 19">
          <path id="Caminho_53" data-name="Caminho 53" d="M216.573,215.773a6.073,6.073,0,1,0,6.392,6.064A6.242,6.242,0,0,0,216.573,215.773Zm0,9.471a3.412,3.412,0,1,1,3.591-3.407A3.507,3.507,0,0,1,216.573,225.244Z" transform="translate(-210.181 -215.773)"/>
        </g>
      </g>
      <g id="Grupo_22" data-name="Grupo 22" transform="translate(0)">
        <g id="Grupo_21" data-name="Grupo 21">
          <path id="Caminho_54" data-name="Caminho 54" d="M85.833,49.181,65.945,40.42V27.23a1.325,1.325,0,0,0-.4-.939L53.728,14.515V6.992h2.049a1.41,1.41,0,0,0,1.45-1.366,1.41,1.41,0,0,0-1.45-1.366H53.728V1.366a1.453,1.453,0,0,0-2.9,0V4.26H48.779a1.41,1.41,0,0,0-1.45,1.366,1.41,1.41,0,0,0,1.45,1.366h2.049v7.524L39.007,26.292a1.324,1.324,0,0,0-.4.939V40.42l-19.887,8.76a1.334,1.334,0,0,0-.7,1.816,1.489,1.489,0,0,0,1.928.659l2.78-1.225V68.308a1.41,1.41,0,0,0,1.45,1.366H80.374a1.41,1.41,0,0,0,1.45-1.366V50.431l2.78,1.225A1.489,1.489,0,0,0,86.532,51,1.333,1.333,0,0,0,85.833,49.181ZM38.61,66.942H33.544V58.3a1.453,1.453,0,0,0-2.9,0v8.645H25.632V49.154L38.61,43.436Zm17.385,0H48.562V55.226a3.619,3.619,0,0,1,3.716-3.5,3.806,3.806,0,0,1,2.629,1.026A3.38,3.38,0,0,1,56,55.226Zm7.05-25.652V66.942H58.9V55.226a6.019,6.019,0,0,0-1.938-4.408,6.779,6.779,0,0,0-4.68-1.827,6.442,6.442,0,0,0-6.616,6.235V66.942H41.51V27.774h0L52.278,17.047,63.045,27.774ZM78.924,66.942H73.912V61.159a1.453,1.453,0,0,0-2.9,0v5.783H65.946V43.437l12.979,5.717Z" transform="translate(-17.887 0)"/>
        </g>
      </g>
      <g id="Grupo_24" data-name="Grupo 24" transform="translate(53.251 56.52)">
        <g id="Grupo_23" data-name="Grupo 23">
          <path id="Caminho_55" data-name="Caminho 55" d="M387.4,412.612a1.329,1.329,0,1,0,0,2.657A1.329,1.329,0,1,0,387.4,412.612Z" transform="translate(-386.051 -412.612)"/>
        </g>
      </g>
    </g>
  </g>
</svg>
