<svg xmlns="http://www.w3.org/2000/svg" width="90" height="90" viewBox="0 0 90 90">
  <g id="Grupo_25" data-name="Grupo 25" transform="translate(105 -1130)">
    <g id="Elipse_8" data-name="Elipse 8" transform="translate(-105 1130)" fill="none" stroke="#fff" stroke-width="10">
      <circle cx="45" cy="45" r="45" stroke="none"/>
      <circle cx="45" cy="45" r="40" fill="none"/>
    </g>
    <g id="ligar" transform="translate(-88.521 1145.211)">
      <g id="Grupo_27" data-name="Grupo 27" transform="translate(0 0)">
        <g id="Grupo_26" data-name="Grupo 26" transform="translate(0 0)">
          <path id="Caminho_56" data-name="Caminho 56" d="M58.706,47.606l-6.637-4.425-5.9-3.933a2.614,2.614,0,0,0-3.51.57l-3.651,4.694a2.6,2.6,0,0,1-3.32.688c-2.477-1.378-5.407-2.676-11.871-9.148s-7.769-9.393-9.148-11.871a2.6,2.6,0,0,1,.688-3.32l4.694-3.651a2.614,2.614,0,0,0,.57-3.51L16.81,7.983,12.264,1.164A2.614,2.614,0,0,0,8.745.372L3.5,3.518A6.405,6.405,0,0,0,.594,7.282C-.84,12.509-1.129,24.04,17.351,42.52s30.01,18.19,35.237,16.756a6.4,6.4,0,0,0,3.764-2.909L59.5,51.125A2.613,2.613,0,0,0,58.706,47.606Z" transform="translate(0 0)"/>
          <path id="Caminho_57" data-name="Caminho 57" d="M283.514,63.856A17.567,17.567,0,0,1,301.062,81.4a1.032,1.032,0,0,0,2.065,0,19.634,19.634,0,0,0-19.612-19.612,1.032,1.032,0,1,0,0,2.064Z" transform="translate(-249.451 -54.567)"/>
          <path id="Caminho_58" data-name="Caminho 58" d="M283.513,116.821a11.368,11.368,0,0,1,11.354,11.354,1.032,1.032,0,1,0,2.065,0,13.434,13.434,0,0,0-13.419-13.419,1.032,1.032,0,0,0,0,2.065Z" transform="translate(-249.45 -101.337)"/>
          <path id="Caminho_59" data-name="Caminho 59" d="M283.514,169.787a5.167,5.167,0,0,1,5.161,5.161,1.032,1.032,0,1,0,2.065,0,7.234,7.234,0,0,0-7.225-7.226,1.032,1.032,0,0,0,0,2.064Z" transform="translate(-249.451 -148.111)"/>
        </g>
      </g>
    </g>
  </g>
</svg>
